<mxfile host="Electron" modified="2023-05-17T15:34:33.258Z" agent="Mozilla/5.0 (Windows NT 10.0; Win64; x64) AppleWebKit/537.36 (KHTML, like Gecko) draw.io/21.2.8 Chrome/112.0.5615.165 Electron/24.2.0 Safari/537.36" etag="MDfwufg0JBXpIHdhc7cR" version="21.2.8" type="device">
  <diagram id="C5RBs43oDa-KdzZeNtuy" name="Page-1">
    <mxGraphModel dx="1235" dy="740" grid="1" gridSize="10" guides="1" tooltips="1" connect="1" arrows="1" fold="1" page="1" pageScale="1" pageWidth="2000" pageHeight="2000" background="none" math="0" shadow="0">
      <root>
        <mxCell id="WIyWlLk6GJQsqaUBKTNV-0" />
        <mxCell id="WIyWlLk6GJQsqaUBKTNV-1" parent="WIyWlLk6GJQsqaUBKTNV-0" />
        <mxCell id="VD52nFYe5I3vlR9p5LBa-3" value="" style="endArrow=diamondThin;endFill=0;endSize=24;html=1;rounded=0;edgeStyle=entityRelationEdgeStyle;" parent="WIyWlLk6GJQsqaUBKTNV-1" edge="1">
          <mxGeometry width="160" relative="1" as="geometry">
            <mxPoint x="40" y="40" as="sourcePoint" />
            <mxPoint x="200" y="40" as="targetPoint" />
          </mxGeometry>
        </mxCell>
        <mxCell id="VD52nFYe5I3vlR9p5LBa-4" value="" style="endArrow=diamondThin;endFill=1;endSize=24;html=1;rounded=0;edgeStyle=entityRelationEdgeStyle;" parent="WIyWlLk6GJQsqaUBKTNV-1" edge="1">
          <mxGeometry width="160" relative="1" as="geometry">
            <mxPoint x="40" y="80" as="sourcePoint" />
            <mxPoint x="200" y="80" as="targetPoint" />
          </mxGeometry>
        </mxCell>
        <mxCell id="VD52nFYe5I3vlR9p5LBa-8" value="Classname" style="swimlane;fontStyle=1;align=center;verticalAlign=top;childLayout=stackLayout;horizontal=1;startSize=26;horizontalStack=0;resizeParent=1;resizeParentMax=0;resizeLast=0;collapsible=1;marginBottom=0;whiteSpace=wrap;html=1;" parent="WIyWlLk6GJQsqaUBKTNV-1" vertex="1">
          <mxGeometry x="40" y="160" width="160" height="86" as="geometry">
            <mxRectangle x="40" y="160" width="100" height="30" as="alternateBounds" />
          </mxGeometry>
        </mxCell>
        <mxCell id="VD52nFYe5I3vlR9p5LBa-9" value="field: type" style="text;strokeColor=none;fillColor=none;align=left;verticalAlign=top;spacingLeft=4;spacingRight=4;overflow=hidden;rotatable=0;points=[[0,0.5],[1,0.5]];portConstraint=eastwest;whiteSpace=wrap;html=1;" parent="VD52nFYe5I3vlR9p5LBa-8" vertex="1">
          <mxGeometry y="26" width="160" height="26" as="geometry" />
        </mxCell>
        <mxCell id="VD52nFYe5I3vlR9p5LBa-10" value="" style="line;strokeWidth=1;fillColor=none;align=left;verticalAlign=middle;spacingTop=-1;spacingLeft=3;spacingRight=3;rotatable=0;labelPosition=right;points=[];portConstraint=eastwest;strokeColor=inherit;" parent="VD52nFYe5I3vlR9p5LBa-8" vertex="1">
          <mxGeometry y="52" width="160" height="8" as="geometry" />
        </mxCell>
        <mxCell id="VD52nFYe5I3vlR9p5LBa-11" value="&amp;nbsp;" style="text;strokeColor=none;fillColor=none;align=left;verticalAlign=top;spacingLeft=4;spacingRight=4;overflow=hidden;rotatable=0;points=[[0,0.5],[1,0.5]];portConstraint=eastwest;whiteSpace=wrap;html=1;" parent="VD52nFYe5I3vlR9p5LBa-8" vertex="1">
          <mxGeometry y="60" width="160" height="26" as="geometry" />
        </mxCell>
        <mxCell id="VD52nFYe5I3vlR9p5LBa-13" value="Weapon" style="swimlane;fontStyle=1;align=center;verticalAlign=top;childLayout=stackLayout;horizontal=1;startSize=26;horizontalStack=0;resizeParent=1;resizeParentMax=0;resizeLast=0;collapsible=1;marginBottom=0;whiteSpace=wrap;html=1;" parent="WIyWlLk6GJQsqaUBKTNV-1" vertex="1">
          <mxGeometry x="680" y="931" width="160" height="138" as="geometry">
            <mxRectangle x="40" y="160" width="100" height="30" as="alternateBounds" />
          </mxGeometry>
        </mxCell>
        <mxCell id="VD52nFYe5I3vlR9p5LBa-39" value="ShootEntity[∞]" style="text;strokeColor=none;fillColor=none;align=left;verticalAlign=top;spacingLeft=4;spacingRight=4;overflow=hidden;rotatable=0;points=[[0,0.5],[1,0.5]];portConstraint=eastwest;whiteSpace=wrap;html=1;" parent="VD52nFYe5I3vlR9p5LBa-13" vertex="1">
          <mxGeometry y="26" width="160" height="26" as="geometry" />
        </mxCell>
        <mxCell id="VD52nFYe5I3vlR9p5LBa-42" value="damage: int" style="text;strokeColor=none;fillColor=none;align=left;verticalAlign=top;spacingLeft=4;spacingRight=4;overflow=hidden;rotatable=0;points=[[0,0.5],[1,0.5]];portConstraint=eastwest;whiteSpace=wrap;html=1;" parent="VD52nFYe5I3vlR9p5LBa-13" vertex="1">
          <mxGeometry y="52" width="160" height="26" as="geometry" />
        </mxCell>
        <mxCell id="kXJuFVU_EweGHnO-BuK2-27" value="fire_rate_time: float" style="text;strokeColor=none;fillColor=none;align=left;verticalAlign=top;spacingLeft=4;spacingRight=4;overflow=hidden;rotatable=0;points=[[0,0.5],[1,0.5]];portConstraint=eastwest;whiteSpace=wrap;html=1;" parent="VD52nFYe5I3vlR9p5LBa-13" vertex="1">
          <mxGeometry y="78" width="160" height="26" as="geometry" />
        </mxCell>
        <mxCell id="VD52nFYe5I3vlR9p5LBa-15" value="" style="line;strokeWidth=1;fillColor=none;align=left;verticalAlign=middle;spacingTop=-1;spacingLeft=3;spacingRight=3;rotatable=0;labelPosition=right;points=[];portConstraint=eastwest;strokeColor=inherit;" parent="VD52nFYe5I3vlR9p5LBa-13" vertex="1">
          <mxGeometry y="104" width="160" height="8" as="geometry" />
        </mxCell>
        <mxCell id="VD52nFYe5I3vlR9p5LBa-16" value="&amp;nbsp;" style="text;strokeColor=none;fillColor=none;align=left;verticalAlign=top;spacingLeft=4;spacingRight=4;overflow=hidden;rotatable=0;points=[[0,0.5],[1,0.5]];portConstraint=eastwest;whiteSpace=wrap;html=1;" parent="VD52nFYe5I3vlR9p5LBa-13" vertex="1">
          <mxGeometry y="112" width="160" height="26" as="geometry" />
        </mxCell>
        <mxCell id="VD52nFYe5I3vlR9p5LBa-17" value="Player" style="swimlane;fontStyle=1;align=center;verticalAlign=top;childLayout=stackLayout;horizontal=1;startSize=26;horizontalStack=0;resizeParent=1;resizeParentMax=0;resizeLast=0;collapsible=1;marginBottom=0;whiteSpace=wrap;html=1;" parent="WIyWlLk6GJQsqaUBKTNV-1" vertex="1">
          <mxGeometry x="1120" y="40" width="160" height="216" as="geometry">
            <mxRectangle x="40" y="160" width="100" height="30" as="alternateBounds" />
          </mxGeometry>
        </mxCell>
        <mxCell id="VD52nFYe5I3vlR9p5LBa-25" value="HC" style="text;align=left;verticalAlign=top;spacingLeft=4;spacingRight=4;overflow=hidden;rotatable=0;points=[[0,0.5],[1,0.5]];portConstraint=eastwest;" parent="VD52nFYe5I3vlR9p5LBa-17" vertex="1">
          <mxGeometry y="26" width="160" height="26" as="geometry" />
        </mxCell>
        <mxCell id="VD52nFYe5I3vlR9p5LBa-26" value="PlayerWeapon[2]" style="text;align=left;verticalAlign=top;spacingLeft=4;spacingRight=4;overflow=hidden;rotatable=0;points=[[0,0.5],[1,0.5]];portConstraint=eastwest;rounded=0;shadow=0;html=0;" parent="VD52nFYe5I3vlR9p5LBa-17" vertex="1">
          <mxGeometry y="52" width="160" height="26" as="geometry" />
        </mxCell>
        <mxCell id="VD52nFYe5I3vlR9p5LBa-40" value="PlayerSkin" style="text;align=left;verticalAlign=top;spacingLeft=4;spacingRight=4;overflow=hidden;rotatable=0;points=[[0,0.5],[1,0.5]];portConstraint=eastwest;rounded=0;shadow=0;html=0;" parent="VD52nFYe5I3vlR9p5LBa-17" vertex="1">
          <mxGeometry y="78" width="160" height="26" as="geometry" />
        </mxCell>
        <mxCell id="VD52nFYe5I3vlR9p5LBa-27" value="Artefact" style="text;align=left;verticalAlign=top;spacingLeft=4;spacingRight=4;overflow=hidden;rotatable=0;points=[[0,0.5],[1,0.5]];portConstraint=eastwest;rounded=0;shadow=0;html=0;" parent="VD52nFYe5I3vlR9p5LBa-17" vertex="1">
          <mxGeometry y="104" width="160" height="26" as="geometry" />
        </mxCell>
        <mxCell id="VD52nFYe5I3vlR9p5LBa-28" value="Passive[∞]" style="text;align=left;verticalAlign=top;spacingLeft=4;spacingRight=4;overflow=hidden;rotatable=0;points=[[0,0.5],[1,0.5]];portConstraint=eastwest;rounded=0;shadow=0;html=0;" parent="VD52nFYe5I3vlR9p5LBa-17" vertex="1">
          <mxGeometry y="130" width="160" height="26" as="geometry" />
        </mxCell>
        <mxCell id="kXJuFVU_EweGHnO-BuK2-26" value="&gt; CollisionShape2D" style="text;align=left;verticalAlign=top;spacingLeft=4;spacingRight=4;overflow=hidden;rotatable=0;points=[[0,0.5],[1,0.5]];portConstraint=eastwest;rounded=0;shadow=0;html=0;" parent="VD52nFYe5I3vlR9p5LBa-17" vertex="1">
          <mxGeometry y="156" width="160" height="26" as="geometry" />
        </mxCell>
        <mxCell id="VD52nFYe5I3vlR9p5LBa-19" value="" style="line;strokeWidth=1;fillColor=none;align=left;verticalAlign=middle;spacingTop=-1;spacingLeft=3;spacingRight=3;rotatable=0;labelPosition=right;points=[];portConstraint=eastwest;strokeColor=inherit;" parent="VD52nFYe5I3vlR9p5LBa-17" vertex="1">
          <mxGeometry y="182" width="160" height="8" as="geometry" />
        </mxCell>
        <mxCell id="VD52nFYe5I3vlR9p5LBa-20" value="move(direction)" style="text;strokeColor=none;fillColor=none;align=left;verticalAlign=top;spacingLeft=4;spacingRight=4;overflow=hidden;rotatable=0;points=[[0,0.5],[1,0.5]];portConstraint=eastwest;whiteSpace=wrap;html=1;" parent="VD52nFYe5I3vlR9p5LBa-17" vertex="1">
          <mxGeometry y="190" width="160" height="26" as="geometry" />
        </mxCell>
        <mxCell id="VD52nFYe5I3vlR9p5LBa-32" value="HealthComponent (HC)" style="swimlane;fontStyle=1;align=center;verticalAlign=top;childLayout=stackLayout;horizontal=1;startSize=26;horizontalStack=0;resizeParent=1;resizeParentMax=0;resizeLast=0;collapsible=1;marginBottom=0;whiteSpace=wrap;html=1;" parent="WIyWlLk6GJQsqaUBKTNV-1" vertex="1">
          <mxGeometry x="760" y="40" width="160" height="190" as="geometry">
            <mxRectangle x="40" y="160" width="100" height="30" as="alternateBounds" />
          </mxGeometry>
        </mxCell>
        <mxCell id="VD52nFYe5I3vlR9p5LBa-33" value="&amp;gt; Area2D" style="text;strokeColor=none;fillColor=none;align=left;verticalAlign=top;spacingLeft=4;spacingRight=4;overflow=hidden;rotatable=0;points=[[0,0.5],[1,0.5]];portConstraint=eastwest;whiteSpace=wrap;html=1;" parent="VD52nFYe5I3vlR9p5LBa-32" vertex="1">
          <mxGeometry y="26" width="160" height="26" as="geometry" />
        </mxCell>
        <mxCell id="VD52nFYe5I3vlR9p5LBa-41" value="damage_source: not-null" style="text;strokeColor=none;fillColor=none;align=left;verticalAlign=top;spacingLeft=4;spacingRight=4;overflow=hidden;rotatable=0;points=[[0,0.5],[1,0.5]];portConstraint=eastwest;whiteSpace=wrap;html=1;" parent="VD52nFYe5I3vlR9p5LBa-32" vertex="1">
          <mxGeometry y="52" width="160" height="26" as="geometry" />
        </mxCell>
        <mxCell id="VD52nFYe5I3vlR9p5LBa-37" value="health: int" style="text;strokeColor=none;fillColor=none;align=left;verticalAlign=top;spacingLeft=4;spacingRight=4;overflow=hidden;rotatable=0;points=[[0,0.5],[1,0.5]];portConstraint=eastwest;whiteSpace=wrap;html=1;" parent="VD52nFYe5I3vlR9p5LBa-32" vertex="1">
          <mxGeometry y="78" width="160" height="26" as="geometry" />
        </mxCell>
        <mxCell id="VD52nFYe5I3vlR9p5LBa-38" value="max_health: int" style="text;strokeColor=none;fillColor=none;align=left;verticalAlign=top;spacingLeft=4;spacingRight=4;overflow=hidden;rotatable=0;points=[[0,0.5],[1,0.5]];portConstraint=eastwest;whiteSpace=wrap;html=1;" parent="VD52nFYe5I3vlR9p5LBa-32" vertex="1">
          <mxGeometry y="104" width="160" height="26" as="geometry" />
        </mxCell>
        <mxCell id="kXJuFVU_EweGHnO-BuK2-45" value="dead: signal" style="text;strokeColor=none;fillColor=none;align=left;verticalAlign=top;spacingLeft=4;spacingRight=4;overflow=hidden;rotatable=0;points=[[0,0.5],[1,0.5]];portConstraint=eastwest;whiteSpace=wrap;html=1;" parent="VD52nFYe5I3vlR9p5LBa-32" vertex="1">
          <mxGeometry y="130" width="160" height="26" as="geometry" />
        </mxCell>
        <mxCell id="VD52nFYe5I3vlR9p5LBa-34" value="" style="line;strokeWidth=1;fillColor=none;align=left;verticalAlign=middle;spacingTop=-1;spacingLeft=3;spacingRight=3;rotatable=0;labelPosition=right;points=[];portConstraint=eastwest;strokeColor=inherit;" parent="VD52nFYe5I3vlR9p5LBa-32" vertex="1">
          <mxGeometry y="156" width="160" height="8" as="geometry" />
        </mxCell>
        <mxCell id="VD52nFYe5I3vlR9p5LBa-35" value="take_damage(value)" style="text;strokeColor=none;fillColor=none;align=left;verticalAlign=top;spacingLeft=4;spacingRight=4;overflow=hidden;rotatable=0;points=[[0,0.5],[1,0.5]];portConstraint=eastwest;whiteSpace=wrap;html=1;" parent="VD52nFYe5I3vlR9p5LBa-32" vertex="1">
          <mxGeometry y="164" width="160" height="26" as="geometry" />
        </mxCell>
        <mxCell id="VD52nFYe5I3vlR9p5LBa-43" value="Skin" style="swimlane;fontStyle=1;align=center;verticalAlign=top;childLayout=stackLayout;horizontal=1;startSize=26;horizontalStack=0;resizeParent=1;resizeParentMax=0;resizeLast=0;collapsible=1;marginBottom=0;whiteSpace=wrap;html=1;" parent="WIyWlLk6GJQsqaUBKTNV-1" vertex="1">
          <mxGeometry x="680" y="600" width="160" height="86" as="geometry">
            <mxRectangle x="40" y="160" width="100" height="30" as="alternateBounds" />
          </mxGeometry>
        </mxCell>
        <mxCell id="VD52nFYe5I3vlR9p5LBa-44" value="&amp;gt; AnimatedSprite2D" style="text;strokeColor=none;fillColor=none;align=left;verticalAlign=top;spacingLeft=4;spacingRight=4;overflow=hidden;rotatable=0;points=[[0,0.5],[1,0.5]];portConstraint=eastwest;whiteSpace=wrap;html=1;" parent="VD52nFYe5I3vlR9p5LBa-43" vertex="1">
          <mxGeometry y="26" width="160" height="26" as="geometry" />
        </mxCell>
        <mxCell id="VD52nFYe5I3vlR9p5LBa-45" value="" style="line;strokeWidth=1;fillColor=none;align=left;verticalAlign=middle;spacingTop=-1;spacingLeft=3;spacingRight=3;rotatable=0;labelPosition=right;points=[];portConstraint=eastwest;strokeColor=inherit;" parent="VD52nFYe5I3vlR9p5LBa-43" vertex="1">
          <mxGeometry y="52" width="160" height="8" as="geometry" />
        </mxCell>
        <mxCell id="VD52nFYe5I3vlR9p5LBa-46" value="&amp;nbsp;" style="text;strokeColor=none;fillColor=none;align=left;verticalAlign=top;spacingLeft=4;spacingRight=4;overflow=hidden;rotatable=0;points=[[0,0.5],[1,0.5]];portConstraint=eastwest;whiteSpace=wrap;html=1;" parent="VD52nFYe5I3vlR9p5LBa-43" vertex="1">
          <mxGeometry y="60" width="160" height="26" as="geometry" />
        </mxCell>
        <mxCell id="kXJuFVU_EweGHnO-BuK2-0" value="Enemy" style="swimlane;fontStyle=1;align=center;verticalAlign=top;childLayout=stackLayout;horizontal=1;startSize=26;horizontalStack=0;resizeParent=1;resizeParentMax=0;resizeLast=0;collapsible=1;marginBottom=0;whiteSpace=wrap;html=1;" parent="WIyWlLk6GJQsqaUBKTNV-1" vertex="1">
          <mxGeometry x="1120" y="320" width="160" height="138" as="geometry">
            <mxRectangle x="40" y="160" width="100" height="30" as="alternateBounds" />
          </mxGeometry>
        </mxCell>
        <mxCell id="kXJuFVU_EweGHnO-BuK2-1" value="HC" style="text;strokeColor=none;fillColor=none;align=left;verticalAlign=top;spacingLeft=4;spacingRight=4;overflow=hidden;rotatable=0;points=[[0,0.5],[1,0.5]];portConstraint=eastwest;whiteSpace=wrap;html=1;" parent="kXJuFVU_EweGHnO-BuK2-0" vertex="1">
          <mxGeometry y="26" width="160" height="26" as="geometry" />
        </mxCell>
        <mxCell id="kXJuFVU_EweGHnO-BuK2-48" value="EnemySkin" style="text;strokeColor=none;fillColor=none;align=left;verticalAlign=top;spacingLeft=4;spacingRight=4;overflow=hidden;rotatable=0;points=[[0,0.5],[1,0.5]];portConstraint=eastwest;whiteSpace=wrap;html=1;" parent="kXJuFVU_EweGHnO-BuK2-0" vertex="1">
          <mxGeometry y="52" width="160" height="26" as="geometry" />
        </mxCell>
        <mxCell id="kXJuFVU_EweGHnO-BuK2-70" value="EnemyWeapon" style="text;strokeColor=none;fillColor=none;align=left;verticalAlign=top;spacingLeft=4;spacingRight=4;overflow=hidden;rotatable=0;points=[[0,0.5],[1,0.5]];portConstraint=eastwest;whiteSpace=wrap;html=1;" parent="kXJuFVU_EweGHnO-BuK2-0" vertex="1">
          <mxGeometry y="78" width="160" height="26" as="geometry" />
        </mxCell>
        <mxCell id="kXJuFVU_EweGHnO-BuK2-2" value="" style="line;strokeWidth=1;fillColor=none;align=left;verticalAlign=middle;spacingTop=-1;spacingLeft=3;spacingRight=3;rotatable=0;labelPosition=right;points=[];portConstraint=eastwest;strokeColor=inherit;" parent="kXJuFVU_EweGHnO-BuK2-0" vertex="1">
          <mxGeometry y="104" width="160" height="8" as="geometry" />
        </mxCell>
        <mxCell id="kXJuFVU_EweGHnO-BuK2-3" value="enter_game()" style="text;strokeColor=none;fillColor=none;align=left;verticalAlign=top;spacingLeft=4;spacingRight=4;overflow=hidden;rotatable=0;points=[[0,0.5],[1,0.5]];portConstraint=eastwest;whiteSpace=wrap;html=1;" parent="kXJuFVU_EweGHnO-BuK2-0" vertex="1">
          <mxGeometry y="112" width="160" height="26" as="geometry" />
        </mxCell>
        <mxCell id="kXJuFVU_EweGHnO-BuK2-4" value="EnemyWeapon" style="swimlane;fontStyle=1;align=center;verticalAlign=top;childLayout=stackLayout;horizontal=1;startSize=26;horizontalStack=0;resizeParent=1;resizeParentMax=0;resizeLast=0;collapsible=1;marginBottom=0;whiteSpace=wrap;html=1;" parent="WIyWlLk6GJQsqaUBKTNV-1" vertex="1">
          <mxGeometry x="760" y="810" width="160" height="112" as="geometry">
            <mxRectangle x="40" y="160" width="100" height="30" as="alternateBounds" />
          </mxGeometry>
        </mxCell>
        <mxCell id="kXJuFVU_EweGHnO-BuK2-5" value="player_pos: Vector2" style="text;strokeColor=none;fillColor=none;align=left;verticalAlign=top;spacingLeft=4;spacingRight=4;overflow=hidden;rotatable=0;points=[[0,0.5],[1,0.5]];portConstraint=eastwest;whiteSpace=wrap;html=1;" parent="kXJuFVU_EweGHnO-BuK2-4" vertex="1">
          <mxGeometry y="26" width="160" height="26" as="geometry" />
        </mxCell>
        <mxCell id="kXJuFVU_EweGHnO-BuK2-25" value="spread_angle: float" style="text;strokeColor=none;fillColor=none;align=left;verticalAlign=top;spacingLeft=4;spacingRight=4;overflow=hidden;rotatable=0;points=[[0,0.5],[1,0.5]];portConstraint=eastwest;whiteSpace=wrap;html=1;" parent="kXJuFVU_EweGHnO-BuK2-4" vertex="1">
          <mxGeometry y="52" width="160" height="26" as="geometry" />
        </mxCell>
        <mxCell id="kXJuFVU_EweGHnO-BuK2-6" value="" style="line;strokeWidth=1;fillColor=none;align=left;verticalAlign=middle;spacingTop=-1;spacingLeft=3;spacingRight=3;rotatable=0;labelPosition=right;points=[];portConstraint=eastwest;strokeColor=inherit;" parent="kXJuFVU_EweGHnO-BuK2-4" vertex="1">
          <mxGeometry y="78" width="160" height="8" as="geometry" />
        </mxCell>
        <mxCell id="kXJuFVU_EweGHnO-BuK2-7" value="&amp;nbsp;" style="text;strokeColor=none;fillColor=none;align=left;verticalAlign=top;spacingLeft=4;spacingRight=4;overflow=hidden;rotatable=0;points=[[0,0.5],[1,0.5]];portConstraint=eastwest;whiteSpace=wrap;html=1;" parent="kXJuFVU_EweGHnO-BuK2-4" vertex="1">
          <mxGeometry y="86" width="160" height="26" as="geometry" />
        </mxCell>
        <mxCell id="kXJuFVU_EweGHnO-BuK2-12" value="PlayerWeapon" style="swimlane;fontStyle=1;align=center;verticalAlign=top;childLayout=stackLayout;horizontal=1;startSize=26;horizontalStack=0;resizeParent=1;resizeParentMax=0;resizeLast=0;collapsible=1;marginBottom=0;whiteSpace=wrap;html=1;" parent="WIyWlLk6GJQsqaUBKTNV-1" vertex="1">
          <mxGeometry x="760" y="720" width="160" height="86" as="geometry">
            <mxRectangle x="40" y="160" width="100" height="30" as="alternateBounds" />
          </mxGeometry>
        </mxCell>
        <mxCell id="kXJuFVU_EweGHnO-BuK2-13" value="is_active: bool" style="text;strokeColor=none;fillColor=none;align=left;verticalAlign=top;spacingLeft=4;spacingRight=4;overflow=hidden;rotatable=0;points=[[0,0.5],[1,0.5]];portConstraint=eastwest;whiteSpace=wrap;html=1;" parent="kXJuFVU_EweGHnO-BuK2-12" vertex="1">
          <mxGeometry y="26" width="160" height="26" as="geometry" />
        </mxCell>
        <mxCell id="kXJuFVU_EweGHnO-BuK2-14" value="" style="line;strokeWidth=1;fillColor=none;align=left;verticalAlign=middle;spacingTop=-1;spacingLeft=3;spacingRight=3;rotatable=0;labelPosition=right;points=[];portConstraint=eastwest;strokeColor=inherit;" parent="kXJuFVU_EweGHnO-BuK2-12" vertex="1">
          <mxGeometry y="52" width="160" height="8" as="geometry" />
        </mxCell>
        <mxCell id="kXJuFVU_EweGHnO-BuK2-15" value="&amp;nbsp;" style="text;strokeColor=none;fillColor=none;align=left;verticalAlign=top;spacingLeft=4;spacingRight=4;overflow=hidden;rotatable=0;points=[[0,0.5],[1,0.5]];portConstraint=eastwest;whiteSpace=wrap;html=1;" parent="kXJuFVU_EweGHnO-BuK2-12" vertex="1">
          <mxGeometry y="60" width="160" height="26" as="geometry" />
        </mxCell>
        <mxCell id="kXJuFVU_EweGHnO-BuK2-22" value="" style="endArrow=open;endFill=1;endSize=12;html=1;rounded=0;edgeStyle=entityRelationEdgeStyle;" parent="WIyWlLk6GJQsqaUBKTNV-1" edge="1">
          <mxGeometry width="160" relative="1" as="geometry">
            <mxPoint x="40" y="120" as="sourcePoint" />
            <mxPoint x="200" y="120" as="targetPoint" />
          </mxGeometry>
        </mxCell>
        <mxCell id="kXJuFVU_EweGHnO-BuK2-30" value="PlayerSkin" style="swimlane;fontStyle=1;align=center;verticalAlign=top;childLayout=stackLayout;horizontal=1;startSize=26;horizontalStack=0;resizeParent=1;resizeParentMax=0;resizeLast=0;collapsible=1;marginBottom=0;whiteSpace=wrap;html=1;" parent="WIyWlLk6GJQsqaUBKTNV-1" vertex="1">
          <mxGeometry x="760" y="280" width="160" height="190" as="geometry">
            <mxRectangle x="720" y="560" width="100" height="30" as="alternateBounds" />
          </mxGeometry>
        </mxCell>
        <mxCell id="kXJuFVU_EweGHnO-BuK2-31" value="default: animation" style="text;strokeColor=none;fillColor=none;align=left;verticalAlign=top;spacingLeft=4;spacingRight=4;overflow=hidden;rotatable=0;points=[[0,0.5],[1,0.5]];portConstraint=eastwest;whiteSpace=wrap;html=1;" parent="kXJuFVU_EweGHnO-BuK2-30" vertex="1">
          <mxGeometry y="26" width="160" height="26" as="geometry" />
        </mxCell>
        <mxCell id="kXJuFVU_EweGHnO-BuK2-40" value="run: animation" style="text;strokeColor=none;fillColor=none;align=left;verticalAlign=top;spacingLeft=4;spacingRight=4;overflow=hidden;rotatable=0;points=[[0,0.5],[1,0.5]];portConstraint=eastwest;whiteSpace=wrap;html=1;" parent="kXJuFVU_EweGHnO-BuK2-30" vertex="1">
          <mxGeometry y="52" width="160" height="26" as="geometry" />
        </mxCell>
        <mxCell id="kXJuFVU_EweGHnO-BuK2-41" value="jump: animation (x3)" style="text;strokeColor=none;fillColor=none;align=left;verticalAlign=top;spacingLeft=4;spacingRight=4;overflow=hidden;rotatable=0;points=[[0,0.5],[1,0.5]];portConstraint=eastwest;whiteSpace=wrap;html=1;" parent="kXJuFVU_EweGHnO-BuK2-30" vertex="1">
          <mxGeometry y="78" width="160" height="26" as="geometry" />
        </mxCell>
        <mxCell id="kXJuFVU_EweGHnO-BuK2-42" value="dodge: animation" style="text;strokeColor=none;fillColor=none;align=left;verticalAlign=top;spacingLeft=4;spacingRight=4;overflow=hidden;rotatable=0;points=[[0,0.5],[1,0.5]];portConstraint=eastwest;whiteSpace=wrap;html=1;" parent="kXJuFVU_EweGHnO-BuK2-30" vertex="1">
          <mxGeometry y="104" width="160" height="26" as="geometry" />
        </mxCell>
        <mxCell id="kXJuFVU_EweGHnO-BuK2-43" value="dead: animation" style="text;strokeColor=none;fillColor=none;align=left;verticalAlign=top;spacingLeft=4;spacingRight=4;overflow=hidden;rotatable=0;points=[[0,0.5],[1,0.5]];portConstraint=eastwest;whiteSpace=wrap;html=1;" parent="kXJuFVU_EweGHnO-BuK2-30" vertex="1">
          <mxGeometry y="130" width="160" height="26" as="geometry" />
        </mxCell>
        <mxCell id="kXJuFVU_EweGHnO-BuK2-32" value="" style="line;strokeWidth=1;fillColor=none;align=left;verticalAlign=middle;spacingTop=-1;spacingLeft=3;spacingRight=3;rotatable=0;labelPosition=right;points=[];portConstraint=eastwest;strokeColor=inherit;" parent="kXJuFVU_EweGHnO-BuK2-30" vertex="1">
          <mxGeometry y="156" width="160" height="8" as="geometry" />
        </mxCell>
        <mxCell id="kXJuFVU_EweGHnO-BuK2-33" value="&amp;nbsp;" style="text;strokeColor=none;fillColor=none;align=left;verticalAlign=top;spacingLeft=4;spacingRight=4;overflow=hidden;rotatable=0;points=[[0,0.5],[1,0.5]];portConstraint=eastwest;whiteSpace=wrap;html=1;" parent="kXJuFVU_EweGHnO-BuK2-30" vertex="1">
          <mxGeometry y="164" width="160" height="26" as="geometry" />
        </mxCell>
        <mxCell id="kXJuFVU_EweGHnO-BuK2-36" value="EnemySkin" style="swimlane;fontStyle=1;align=center;verticalAlign=top;childLayout=stackLayout;horizontal=1;startSize=26;horizontalStack=0;resizeParent=1;resizeParentMax=0;resizeLast=0;collapsible=1;marginBottom=0;whiteSpace=wrap;html=1;" parent="WIyWlLk6GJQsqaUBKTNV-1" vertex="1">
          <mxGeometry x="760" y="480" width="160" height="112" as="geometry">
            <mxRectangle x="40" y="160" width="100" height="30" as="alternateBounds" />
          </mxGeometry>
        </mxCell>
        <mxCell id="kXJuFVU_EweGHnO-BuK2-37" value="default: animation" style="text;strokeColor=none;fillColor=none;align=left;verticalAlign=top;spacingLeft=4;spacingRight=4;overflow=hidden;rotatable=0;points=[[0,0.5],[1,0.5]];portConstraint=eastwest;whiteSpace=wrap;html=1;" parent="kXJuFVU_EweGHnO-BuK2-36" vertex="1">
          <mxGeometry y="26" width="160" height="26" as="geometry" />
        </mxCell>
        <mxCell id="kXJuFVU_EweGHnO-BuK2-44" value="dead: animation" style="text;strokeColor=none;fillColor=none;align=left;verticalAlign=top;spacingLeft=4;spacingRight=4;overflow=hidden;rotatable=0;points=[[0,0.5],[1,0.5]];portConstraint=eastwest;whiteSpace=wrap;html=1;" parent="kXJuFVU_EweGHnO-BuK2-36" vertex="1">
          <mxGeometry y="52" width="160" height="26" as="geometry" />
        </mxCell>
        <mxCell id="kXJuFVU_EweGHnO-BuK2-38" value="" style="line;strokeWidth=1;fillColor=none;align=left;verticalAlign=middle;spacingTop=-1;spacingLeft=3;spacingRight=3;rotatable=0;labelPosition=right;points=[];portConstraint=eastwest;strokeColor=inherit;" parent="kXJuFVU_EweGHnO-BuK2-36" vertex="1">
          <mxGeometry y="78" width="160" height="8" as="geometry" />
        </mxCell>
        <mxCell id="kXJuFVU_EweGHnO-BuK2-39" value="&amp;nbsp;" style="text;strokeColor=none;fillColor=none;align=left;verticalAlign=top;spacingLeft=4;spacingRight=4;overflow=hidden;rotatable=0;points=[[0,0.5],[1,0.5]];portConstraint=eastwest;whiteSpace=wrap;html=1;" parent="kXJuFVU_EweGHnO-BuK2-36" vertex="1">
          <mxGeometry y="86" width="160" height="26" as="geometry" />
        </mxCell>
        <mxCell id="kXJuFVU_EweGHnO-BuK2-53" value="" style="endArrow=diamondThin;endFill=1;endSize=24;html=1;rounded=0;edgeStyle=entityRelationEdgeStyle;" parent="WIyWlLk6GJQsqaUBKTNV-1" source="VD52nFYe5I3vlR9p5LBa-32" target="VD52nFYe5I3vlR9p5LBa-25" edge="1">
          <mxGeometry width="160" relative="1" as="geometry">
            <mxPoint x="960" y="310" as="sourcePoint" />
            <mxPoint x="1120" y="310" as="targetPoint" />
          </mxGeometry>
        </mxCell>
        <mxCell id="kXJuFVU_EweGHnO-BuK2-54" value="" style="endArrow=diamondThin;endFill=1;endSize=24;html=1;rounded=0;edgeStyle=entityRelationEdgeStyle;" parent="WIyWlLk6GJQsqaUBKTNV-1" source="kXJuFVU_EweGHnO-BuK2-30" target="VD52nFYe5I3vlR9p5LBa-40" edge="1">
          <mxGeometry width="160" relative="1" as="geometry">
            <mxPoint x="990" y="290" as="sourcePoint" />
            <mxPoint x="1150" y="290" as="targetPoint" />
          </mxGeometry>
        </mxCell>
        <mxCell id="kXJuFVU_EweGHnO-BuK2-55" value="" style="endArrow=open;endFill=1;endSize=12;html=1;rounded=0;edgeStyle=entityRelationEdgeStyle;" parent="WIyWlLk6GJQsqaUBKTNV-1" source="VD52nFYe5I3vlR9p5LBa-43" target="kXJuFVU_EweGHnO-BuK2-36" edge="1">
          <mxGeometry width="160" relative="1" as="geometry">
            <mxPoint x="1000" y="912" as="sourcePoint" />
            <mxPoint x="1160" y="912" as="targetPoint" />
          </mxGeometry>
        </mxCell>
        <mxCell id="kXJuFVU_EweGHnO-BuK2-56" value="" style="endArrow=open;endFill=1;endSize=12;html=1;rounded=0;edgeStyle=entityRelationEdgeStyle;" parent="WIyWlLk6GJQsqaUBKTNV-1" source="VD52nFYe5I3vlR9p5LBa-43" target="kXJuFVU_EweGHnO-BuK2-30" edge="1">
          <mxGeometry width="160" relative="1" as="geometry">
            <mxPoint x="1200" y="350" as="sourcePoint" />
            <mxPoint x="1360" y="350" as="targetPoint" />
          </mxGeometry>
        </mxCell>
        <mxCell id="kXJuFVU_EweGHnO-BuK2-67" value="" style="endArrow=open;endFill=1;endSize=12;html=1;rounded=0;edgeStyle=entityRelationEdgeStyle;" parent="WIyWlLk6GJQsqaUBKTNV-1" source="VD52nFYe5I3vlR9p5LBa-13" target="kXJuFVU_EweGHnO-BuK2-12" edge="1">
          <mxGeometry width="160" relative="1" as="geometry">
            <mxPoint x="950" y="870" as="sourcePoint" />
            <mxPoint x="1110" y="870" as="targetPoint" />
          </mxGeometry>
        </mxCell>
        <mxCell id="kXJuFVU_EweGHnO-BuK2-68" value="" style="endArrow=open;endFill=1;endSize=12;html=1;rounded=0;edgeStyle=entityRelationEdgeStyle;" parent="WIyWlLk6GJQsqaUBKTNV-1" source="VD52nFYe5I3vlR9p5LBa-13" target="kXJuFVU_EweGHnO-BuK2-4" edge="1">
          <mxGeometry width="160" relative="1" as="geometry">
            <mxPoint x="990" y="1030" as="sourcePoint" />
            <mxPoint x="1150" y="1030" as="targetPoint" />
          </mxGeometry>
        </mxCell>
        <mxCell id="kXJuFVU_EweGHnO-BuK2-69" value="" style="endArrow=diamondThin;endFill=1;endSize=24;html=1;rounded=0;edgeStyle=entityRelationEdgeStyle;" parent="WIyWlLk6GJQsqaUBKTNV-1" source="kXJuFVU_EweGHnO-BuK2-12" target="VD52nFYe5I3vlR9p5LBa-26" edge="1">
          <mxGeometry width="160" relative="1" as="geometry">
            <mxPoint x="1200" y="615.09" as="sourcePoint" />
            <mxPoint x="1360" y="615.09" as="targetPoint" />
          </mxGeometry>
        </mxCell>
        <mxCell id="kXJuFVU_EweGHnO-BuK2-71" value="" style="endArrow=diamondThin;endFill=1;endSize=24;html=1;rounded=0;edgeStyle=entityRelationEdgeStyle;" parent="WIyWlLk6GJQsqaUBKTNV-1" source="kXJuFVU_EweGHnO-BuK2-4" target="kXJuFVU_EweGHnO-BuK2-70" edge="1">
          <mxGeometry width="160" relative="1" as="geometry">
            <mxPoint x="1440" y="900" as="sourcePoint" />
            <mxPoint x="1600" y="900" as="targetPoint" />
          </mxGeometry>
        </mxCell>
        <mxCell id="N8sAntu9Kxes0IaL37B0-0" value="ShootEntity" style="swimlane;fontStyle=1;align=center;verticalAlign=top;childLayout=stackLayout;horizontal=1;startSize=26;horizontalStack=0;resizeParent=1;resizeParentMax=0;resizeLast=0;collapsible=1;marginBottom=0;whiteSpace=wrap;html=1;" parent="WIyWlLk6GJQsqaUBKTNV-1" vertex="1">
          <mxGeometry x="400" y="920" width="160" height="164" as="geometry">
            <mxRectangle x="40" y="160" width="100" height="30" as="alternateBounds" />
          </mxGeometry>
        </mxCell>
        <mxCell id="N8sAntu9Kxes0IaL37B0-1" value="entity_owner: OwnerType" style="text;strokeColor=none;fillColor=none;align=left;verticalAlign=top;spacingLeft=4;spacingRight=4;overflow=hidden;rotatable=0;points=[[0,0.5],[1,0.5]];portConstraint=eastwest;whiteSpace=wrap;html=1;" parent="N8sAntu9Kxes0IaL37B0-0" vertex="1">
          <mxGeometry y="26" width="160" height="26" as="geometry" />
        </mxCell>
        <mxCell id="N8sAntu9Kxes0IaL37B0-4" value="start_position: Vector2" style="text;strokeColor=none;fillColor=none;align=left;verticalAlign=top;spacingLeft=4;spacingRight=4;overflow=hidden;rotatable=0;points=[[0,0.5],[1,0.5]];portConstraint=eastwest;whiteSpace=wrap;html=1;" parent="N8sAntu9Kxes0IaL37B0-0" vertex="1">
          <mxGeometry y="52" width="160" height="26" as="geometry" />
        </mxCell>
        <mxCell id="N8sAntu9Kxes0IaL37B0-5" value="target_position: Vector2" style="text;strokeColor=none;fillColor=none;align=left;verticalAlign=top;spacingLeft=4;spacingRight=4;overflow=hidden;rotatable=0;points=[[0,0.5],[1,0.5]];portConstraint=eastwest;whiteSpace=wrap;html=1;" parent="N8sAntu9Kxes0IaL37B0-0" vertex="1">
          <mxGeometry y="78" width="160" height="26" as="geometry" />
        </mxCell>
        <mxCell id="N8sAntu9Kxes0IaL37B0-6" value="damage: int" style="text;strokeColor=none;fillColor=none;align=left;verticalAlign=top;spacingLeft=4;spacingRight=4;overflow=hidden;rotatable=0;points=[[0,0.5],[1,0.5]];portConstraint=eastwest;whiteSpace=wrap;html=1;" parent="N8sAntu9Kxes0IaL37B0-0" vertex="1">
          <mxGeometry y="104" width="160" height="26" as="geometry" />
        </mxCell>
        <mxCell id="N8sAntu9Kxes0IaL37B0-2" value="" style="line;strokeWidth=1;fillColor=none;align=left;verticalAlign=middle;spacingTop=-1;spacingLeft=3;spacingRight=3;rotatable=0;labelPosition=right;points=[];portConstraint=eastwest;strokeColor=inherit;" parent="N8sAntu9Kxes0IaL37B0-0" vertex="1">
          <mxGeometry y="130" width="160" height="8" as="geometry" />
        </mxCell>
        <mxCell id="N8sAntu9Kxes0IaL37B0-3" value="do_damage(to: HC)" style="text;strokeColor=none;fillColor=none;align=left;verticalAlign=top;spacingLeft=4;spacingRight=4;overflow=hidden;rotatable=0;points=[[0,0.5],[1,0.5]];portConstraint=eastwest;whiteSpace=wrap;html=1;" parent="N8sAntu9Kxes0IaL37B0-0" vertex="1">
          <mxGeometry y="138" width="160" height="26" as="geometry" />
        </mxCell>
        <mxCell id="N8sAntu9Kxes0IaL37B0-8" value="Projectile" style="swimlane;fontStyle=1;align=center;verticalAlign=top;childLayout=stackLayout;horizontal=1;startSize=26;horizontalStack=0;resizeParent=1;resizeParentMax=0;resizeLast=0;collapsible=1;marginBottom=0;whiteSpace=wrap;html=1;" parent="WIyWlLk6GJQsqaUBKTNV-1" vertex="1">
          <mxGeometry x="320" y="1090" width="160" height="112" as="geometry">
            <mxRectangle x="40" y="160" width="100" height="30" as="alternateBounds" />
          </mxGeometry>
        </mxCell>
        <mxCell id="N8sAntu9Kxes0IaL37B0-9" value="&amp;gt; Area2D" style="text;strokeColor=none;fillColor=none;align=left;verticalAlign=top;spacingLeft=4;spacingRight=4;overflow=hidden;rotatable=0;points=[[0,0.5],[1,0.5]];portConstraint=eastwest;whiteSpace=wrap;html=1;" parent="N8sAntu9Kxes0IaL37B0-8" vertex="1">
          <mxGeometry y="26" width="160" height="26" as="geometry" />
        </mxCell>
        <mxCell id="N8sAntu9Kxes0IaL37B0-10" value="&amp;gt; Sptite2D" style="text;strokeColor=none;fillColor=none;align=left;verticalAlign=top;spacingLeft=4;spacingRight=4;overflow=hidden;rotatable=0;points=[[0,0.5],[1,0.5]];portConstraint=eastwest;whiteSpace=wrap;html=1;" parent="N8sAntu9Kxes0IaL37B0-8" vertex="1">
          <mxGeometry y="52" width="160" height="26" as="geometry" />
        </mxCell>
        <mxCell id="N8sAntu9Kxes0IaL37B0-13" value="" style="line;strokeWidth=1;fillColor=none;align=left;verticalAlign=middle;spacingTop=-1;spacingLeft=3;spacingRight=3;rotatable=0;labelPosition=right;points=[];portConstraint=eastwest;strokeColor=inherit;" parent="N8sAntu9Kxes0IaL37B0-8" vertex="1">
          <mxGeometry y="78" width="160" height="8" as="geometry" />
        </mxCell>
        <mxCell id="N8sAntu9Kxes0IaL37B0-14" value="&amp;nbsp;" style="text;strokeColor=none;fillColor=none;align=left;verticalAlign=top;spacingLeft=4;spacingRight=4;overflow=hidden;rotatable=0;points=[[0,0.5],[1,0.5]];portConstraint=eastwest;whiteSpace=wrap;html=1;" parent="N8sAntu9Kxes0IaL37B0-8" vertex="1">
          <mxGeometry y="86" width="160" height="26" as="geometry" />
        </mxCell>
        <mxCell id="N8sAntu9Kxes0IaL37B0-15" value="" style="endArrow=diamondThin;endFill=1;endSize=24;html=1;rounded=0;edgeStyle=entityRelationEdgeStyle;" parent="WIyWlLk6GJQsqaUBKTNV-1" source="VD52nFYe5I3vlR9p5LBa-32" target="kXJuFVU_EweGHnO-BuK2-1" edge="1">
          <mxGeometry width="160" relative="1" as="geometry">
            <mxPoint x="930" y="145" as="sourcePoint" />
            <mxPoint x="1130" y="89" as="targetPoint" />
          </mxGeometry>
        </mxCell>
        <mxCell id="N8sAntu9Kxes0IaL37B0-16" value="" style="endArrow=diamondThin;endFill=1;endSize=24;html=1;rounded=0;edgeStyle=entityRelationEdgeStyle;" parent="WIyWlLk6GJQsqaUBKTNV-1" source="kXJuFVU_EweGHnO-BuK2-36" target="kXJuFVU_EweGHnO-BuK2-48" edge="1">
          <mxGeometry width="160" relative="1" as="geometry">
            <mxPoint x="930" y="145" as="sourcePoint" />
            <mxPoint x="1130" y="369" as="targetPoint" />
          </mxGeometry>
        </mxCell>
        <mxCell id="N8sAntu9Kxes0IaL37B0-17" value="" style="endArrow=open;endFill=1;endSize=12;html=1;rounded=0;edgeStyle=entityRelationEdgeStyle;" parent="WIyWlLk6GJQsqaUBKTNV-1" edge="1">
          <mxGeometry width="160" relative="1" as="geometry">
            <mxPoint x="90" y="718.82" as="sourcePoint" />
            <mxPoint x="250" y="718.82" as="targetPoint" />
          </mxGeometry>
        </mxCell>
        <mxCell id="N8sAntu9Kxes0IaL37B0-18" value="ProjectileLinear" style="swimlane;fontStyle=1;align=center;verticalAlign=top;childLayout=stackLayout;horizontal=1;startSize=26;horizontalStack=0;resizeParent=1;resizeParentMax=0;resizeLast=0;collapsible=1;marginBottom=0;whiteSpace=wrap;html=1;" parent="WIyWlLk6GJQsqaUBKTNV-1" vertex="1">
          <mxGeometry x="240" y="1210" width="160" height="112" as="geometry">
            <mxRectangle x="40" y="160" width="100" height="30" as="alternateBounds" />
          </mxGeometry>
        </mxCell>
        <mxCell id="N8sAntu9Kxes0IaL37B0-19" value="speed: float" style="text;strokeColor=none;fillColor=none;align=left;verticalAlign=top;spacingLeft=4;spacingRight=4;overflow=hidden;rotatable=0;points=[[0,0.5],[1,0.5]];portConstraint=eastwest;whiteSpace=wrap;html=1;" parent="N8sAntu9Kxes0IaL37B0-18" vertex="1">
          <mxGeometry y="26" width="160" height="26" as="geometry" />
        </mxCell>
        <mxCell id="N8sAntu9Kxes0IaL37B0-24" value="&amp;gt; VisibleOnScreenNotifier" style="text;strokeColor=none;fillColor=none;align=left;verticalAlign=top;spacingLeft=4;spacingRight=4;overflow=hidden;rotatable=0;points=[[0,0.5],[1,0.5]];portConstraint=eastwest;whiteSpace=wrap;html=1;" parent="N8sAntu9Kxes0IaL37B0-18" vertex="1">
          <mxGeometry y="52" width="160" height="26" as="geometry" />
        </mxCell>
        <mxCell id="N8sAntu9Kxes0IaL37B0-22" value="" style="line;strokeWidth=1;fillColor=none;align=left;verticalAlign=middle;spacingTop=-1;spacingLeft=3;spacingRight=3;rotatable=0;labelPosition=right;points=[];portConstraint=eastwest;strokeColor=inherit;" parent="N8sAntu9Kxes0IaL37B0-18" vertex="1">
          <mxGeometry y="78" width="160" height="8" as="geometry" />
        </mxCell>
        <mxCell id="N8sAntu9Kxes0IaL37B0-23" value="&amp;nbsp;" style="text;strokeColor=none;fillColor=none;align=left;verticalAlign=top;spacingLeft=4;spacingRight=4;overflow=hidden;rotatable=0;points=[[0,0.5],[1,0.5]];portConstraint=eastwest;whiteSpace=wrap;html=1;" parent="N8sAntu9Kxes0IaL37B0-18" vertex="1">
          <mxGeometry y="86" width="160" height="26" as="geometry" />
        </mxCell>
        <mxCell id="N8sAntu9Kxes0IaL37B0-25" value="" style="endArrow=open;endFill=1;endSize=12;html=1;rounded=0;edgeStyle=entityRelationEdgeStyle;" parent="WIyWlLk6GJQsqaUBKTNV-1" source="N8sAntu9Kxes0IaL37B0-0" target="N8sAntu9Kxes0IaL37B0-8" edge="1">
          <mxGeometry width="160" relative="1" as="geometry">
            <mxPoint x="100" y="928.82" as="sourcePoint" />
            <mxPoint x="260" y="928.82" as="targetPoint" />
          </mxGeometry>
        </mxCell>
        <mxCell id="N8sAntu9Kxes0IaL37B0-26" value="" style="endArrow=open;endFill=1;endSize=12;html=1;rounded=0;edgeStyle=entityRelationEdgeStyle;" parent="WIyWlLk6GJQsqaUBKTNV-1" source="N8sAntu9Kxes0IaL37B0-8" target="N8sAntu9Kxes0IaL37B0-18" edge="1">
          <mxGeometry width="160" relative="1" as="geometry">
            <mxPoint x="100" y="928.82" as="sourcePoint" />
            <mxPoint x="260" y="928.82" as="targetPoint" />
          </mxGeometry>
        </mxCell>
        <mxCell id="oSHONn_xp03-glR8O28O-1" value="" style="endArrow=diamondThin;endFill=0;endSize=24;html=1;rounded=0;edgeStyle=entityRelationEdgeStyle;" edge="1" parent="WIyWlLk6GJQsqaUBKTNV-1" source="N8sAntu9Kxes0IaL37B0-0" target="VD52nFYe5I3vlR9p5LBa-39">
          <mxGeometry width="160" relative="1" as="geometry">
            <mxPoint x="440" y="535.4100000000001" as="sourcePoint" />
            <mxPoint x="600" y="535.4100000000001" as="targetPoint" />
          </mxGeometry>
        </mxCell>
      </root>
    </mxGraphModel>
  </diagram>
</mxfile>
